<mxfile host="www.draw.io" modified="2020-03-04T00:39:53.311Z" agent="Mozilla/5.0 (Windows NT 10.0; Win64; x64) AppleWebKit/537.36 (KHTML, like Gecko) Chrome/80.0.3987.122 Safari/537.36" etag="CvQc3D6ROoVHe596OaeW" version="12.7.9" type="github">
  <diagram id="tPdWkuktPei4_erELkiG" name="第1頁">
    <mxGraphModel dx="1069" dy="577" grid="1" gridSize="10" guides="1" tooltips="1" connect="1" arrows="1" fold="1" page="1" pageScale="1" pageWidth="1169" pageHeight="827" math="0" shadow="0">
      <root>
        <mxCell id="0" />
        <mxCell id="1" parent="0" />
        <mxCell id="lFk-jbKLRmFer0ZguVhq-1" value="請求&lt;br&gt;（帶參數）&lt;br&gt;client" style="ellipse;whiteSpace=wrap;html=1;aspect=fixed;" vertex="1" parent="1">
          <mxGeometry x="190" y="200" width="80" height="80" as="geometry" />
        </mxCell>
        <mxCell id="lFk-jbKLRmFer0ZguVhq-2" value="" style="endArrow=classic;html=1;exitX=1;exitY=0.5;exitDx=0;exitDy=0;entryX=0;entryY=0.5;entryDx=0;entryDy=0;" edge="1" parent="1" source="lFk-jbKLRmFer0ZguVhq-1" target="lFk-jbKLRmFer0ZguVhq-3">
          <mxGeometry width="50" height="50" relative="1" as="geometry">
            <mxPoint x="300" y="240" as="sourcePoint" />
            <mxPoint x="350" y="240" as="targetPoint" />
          </mxGeometry>
        </mxCell>
        <mxCell id="lFk-jbKLRmFer0ZguVhq-3" value="WebSocket&lt;br&gt;Server" style="shape=cylinder;whiteSpace=wrap;html=1;boundedLbl=1;backgroundOutline=1;" vertex="1" parent="1">
          <mxGeometry x="545" y="195" width="80" height="90" as="geometry" />
        </mxCell>
        <mxCell id="lFk-jbKLRmFer0ZguVhq-4" value="&lt;span style=&quot;white-space: normal&quot;&gt;WebSocket&lt;/span&gt;" style="text;html=1;align=center;verticalAlign=middle;resizable=0;points=[];autosize=1;" vertex="1" parent="1">
          <mxGeometry x="360" y="210" width="80" height="20" as="geometry" />
        </mxCell>
        <mxCell id="lFk-jbKLRmFer0ZguVhq-5" value="請求參數 有點類似 API URL 模式" style="text;html=1;align=center;verticalAlign=middle;resizable=0;points=[];autosize=1;" vertex="1" parent="1">
          <mxGeometry x="117" y="297" width="190" height="20" as="geometry" />
        </mxCell>
        <mxCell id="lFk-jbKLRmFer0ZguVhq-6" value="確認請求規範正確，建立連接&lt;br&gt;依請求參數&lt;br&gt;調用 API 並監聽數值結果是否有變換&lt;br&gt;當監聽數值發生變化，通知&lt;br&gt;請求的client端進行更新&lt;br&gt;EX：WEB頁面數值刷新" style="text;html=1;align=center;verticalAlign=middle;resizable=0;points=[];autosize=1;" vertex="1" parent="1">
          <mxGeometry x="480" y="297" width="210" height="90" as="geometry" />
        </mxCell>
      </root>
    </mxGraphModel>
  </diagram>
</mxfile>
